HIERARCHY
ROOT RootJoint
{
    OFFSET   0.000000   0.000000   0.000000
    CHANNELS 6 Xposition Yposition Zposition Xrotation Yrotation Zrotation
    JOINT pelvis_lowerback
    {
        OFFSET   0.000000   0.093605   0.000000
        CHANNELS 3 Xrotation Yrotation Zrotation
        JOINT lowerback_torso
        {
            OFFSET   0.000000   0.100000   0.000000
            CHANNELS 3 Xrotation Yrotation Zrotation
            JOINT torso_head
            {
                OFFSET   0.000000   0.282350   0.000000
                CHANNELS 3 Xrotation Yrotation Zrotation
                End Site
                {
                    OFFSET   0.000000   0.192650   0.000000
                }
            }
            JOINT rTorso_Clavicle
            {
                OFFSET  -0.001000   0.157500   0.000000
                CHANNELS 3 Xrotation Yrotation Zrotation
                JOINT rShoulder
                {
                    OFFSET  -0.117647   0.000000   0.000000
                    CHANNELS 3 Xrotation Yrotation Zrotation
                    JOINT rElbow
                    {
                        OFFSET  -0.245000   0.000000   0.000000
                        CHANNELS 3 Xrotation Yrotation Zrotation
                        JOINT rWrist
                        {
                            OFFSET  -0.240000   0.000000   0.000000
                            CHANNELS 3 Xrotation Yrotation Zrotation
                            End Site
                            {
                                OFFSET  -0.116353  -0.002500   0.000000
                            }
                        }
                    }
                }
            }
            JOINT lTorso_Clavicle
            {
                OFFSET   0.001000   0.157500   0.000000
                CHANNELS 3 Xrotation Yrotation Zrotation
                JOINT lShoulder
                {
                    OFFSET   0.117647   0.000000   0.000000
                    CHANNELS 3 Xrotation Yrotation Zrotation
                    JOINT lElbow
                    {
                        OFFSET   0.245000   0.000000   0.000000
                        CHANNELS 3 Xrotation Yrotation Zrotation
                        JOINT lWrist
                        {
                            OFFSET   0.240000   0.000000   0.000000
                            CHANNELS 3 Xrotation Yrotation Zrotation
                            End Site
                            {
                                OFFSET   0.116353  -0.002500   0.000000
                            }
                        }
                    }
                }
            }
        }
    }
    JOINT rHip
    {
        OFFSET  -0.100000  -0.051395   0.000000
        CHANNELS 3 Xrotation Yrotation Zrotation
        JOINT rKnee
        {
            OFFSET   0.000000  -0.410000   0.000000
            CHANNELS 3 Xrotation Yrotation Zrotation
            JOINT rAnkle
            {
                OFFSET   0.000000  -0.390000   0.000000
                CHANNELS 3 Xrotation Yrotation Zrotation
                JOINT rToeJoint
                {
                    OFFSET   0.000000  -0.050000   0.130000
                    CHANNELS 3 Xrotation Yrotation Zrotation
                    End Site
                    {
                        OFFSET  -0.010000   0.002000   0.060000
                    }
                }
            }
        }
    }
    JOINT lHip
    {
        OFFSET   0.100000  -0.051395   0.000000
        CHANNELS 3 Xrotation Yrotation Zrotation
        JOINT lKnee
        {
            OFFSET   0.000000  -0.410000   0.000000
            CHANNELS 3 Xrotation Yrotation Zrotation
            JOINT lAnkle
            {
                OFFSET   0.000000  -0.390000   0.000000
                CHANNELS 3 Xrotation Yrotation Zrotation
                JOINT lToeJoint
                {
                    OFFSET   0.000000  -0.050000   0.130000
                    CHANNELS 3 Xrotation Yrotation Zrotation
                    End Site
                    {
                        OFFSET   0.010000   0.002000   0.060000
                    }
                }
            }
        }
    }
}
MOTION
Frames: 5
Frame Time:   0.008333
 -2.429321   0.910403   4.423285  -4.757164  -7.241778   0.969087   6.608775  -1.269025  -2.806154  -0.806168  -4.150127  -0.820569  -1.601252  -0.299948   0.450005  -2.983582   0.798048  -2.871200 -11.750972  -0.909775  60.294933 -179.989541  83.423021 179.987155  -6.317035   3.650838 -14.770657   2.851819  -7.255578  -1.313085   5.134999 -19.204619 -61.340732 -179.993038 -86.287178 -179.992376  -7.261222  -2.627383  11.487180   4.576212  -9.960791  -3.994442  26.958306   0.001506   0.001508 -11.069184 -11.368933  -0.245524 -23.659181   0.000837   0.000624 -10.525272   1.015093   6.219110  42.770705  -0.010098  -0.011139  -5.658684   5.634626  -0.862238  -6.906119  -0.002434  -0.003126
 -2.430468   0.910996   4.425751  -4.708678  -7.570873   0.887291   6.586258  -1.059219  -2.738407  -0.849987  -4.035427  -0.853522  -1.573693  -0.344773   0.502299  -2.913366   0.963506  -2.985730 -11.893580  -0.677101  60.377484 -179.989816  83.494111 179.987905  -6.231327   3.848730 -14.923563   2.982497  -7.007133  -1.221937   5.246301 -18.642199 -61.128659 179.991436 -86.460849 179.991663  -7.271254  -2.731466  11.263667   4.816492  -9.874060  -3.896153  26.603755   0.001488   0.001866 -10.702932 -11.212756  -0.169510 -24.119610   0.000814   0.000867 -11.209940   1.008594   6.195896  43.953045  -0.008644  -0.011830  -5.351923   5.742745  -0.927492  -6.509169  -0.001957  -0.003122
 -2.431498   0.911748   4.428250  -4.655192  -7.886862   0.822876   6.572713  -0.823420  -2.684337  -0.886944  -3.887178  -0.882570  -1.557431  -0.389583   0.545639  -2.812586   1.132950  -3.060798 -11.992553  -0.447539  60.485504 -179.989078  83.578463 179.987476  -6.178300   3.929106 -14.964829   3.114213  -6.738718  -1.115501   5.365313 -18.079415 -60.908201 179.974323 -86.648766 179.974165  -7.302365  -2.721932  11.187449   5.064816  -9.792198  -3.818642  26.206414   0.001466   0.002212 -10.272018 -11.064958  -0.103890 -24.631716   0.000703   0.001059 -11.913259   1.006820   6.120452  45.007047  -0.007133  -0.012215  -5.070015   5.842995  -0.988855  -6.161559  -0.001441  -0.003090
 -2.432402   0.912544   4.430777  -4.610682  -8.184009   0.764983   6.577371  -0.570698  -2.634776  -0.908070  -3.716103  -0.899399  -1.543164  -0.430931   0.584022  -2.707630   1.301696  -3.116720 -12.075285  -0.227025  60.600310 -179.988127  83.662211 179.986733  -6.142932   3.952728 -14.946040   3.242805  -6.468205  -0.996856   5.484187 -17.537944 -60.690956 179.958927 -86.828747 179.958470  -7.340031  -2.671106  11.184483   5.320079  -9.715613  -3.754860  25.807926   0.001402   0.002459  -9.811836 -10.927623  -0.047648 -25.180492   0.000513   0.001189 -12.624436   1.008456   6.012730  45.972539  -0.005679  -0.012331  -4.808222   5.935869  -1.046659  -5.848192  -0.000950  -0.003021
 -2.433185   0.913322   4.433351  -4.578156  -8.459468   0.709068   6.597423  -0.309509  -2.584837  -0.914227  -3.531411  -0.904668  -1.528163  -0.468881   0.619660  -2.606353   1.468398  -3.162285 -12.150383  -0.016104  60.715155 -179.987275  83.742263 179.986027  -6.115907   3.952283 -14.894238   3.367061  -6.202206  -0.873316   5.600122 -17.022743 -60.481683 179.945894 -86.998052 179.945219  -7.378913  -2.607536  11.217507   5.581778  -9.644195  -3.701021  25.424733   0.001294   0.002591  -9.345238 -10.800175   0.001145 -25.750411   0.000275   0.001246 -13.333431   1.012964   5.884848  46.860744  -0.004342  -0.012200  -4.564670   6.021999  -1.101058  -5.564275  -0.000511  -0.002914
